<region>
lovel=1
hivel=20
ampeg_release=1
sample=Db6_v20.aif
offset=0
lokey=84
hikey=84
pitch_keycenter=85
loop_mode=loop_continuous
loop_start=819714
loop_end=981416
<region>
lovel=21
hivel=40
ampeg_release=1
sample=Db6_v40.aif
offset=0
lokey=84
hikey=84
pitch_keycenter=85
loop_mode=loop_continuous
loop_start=819973
loop_end=834430
<region>
lovel=41
hivel=60
ampeg_release=1
sample=Db6_v60.aif
offset=0
lokey=84
hikey=84
pitch_keycenter=85
loop_mode=loop_continuous
loop_start=819973
loop_end=981317
<region>
lovel=61
hivel=80
ampeg_release=1
sample=Db6_v80.aif
offset=0
lokey=84
hikey=84
pitch_keycenter=85
loop_mode=loop_continuous
loop_start=981587
loop_end=1066276
<region>
lovel=81
hivel=100
ampeg_release=1
sample=Db6_v100.aif
offset=0
lokey=84
hikey=84
pitch_keycenter=85
loop_mode=loop_continuous
loop_start=819973
loop_end=834366
<region>
lovel=101
hivel=127
ampeg_release=1
sample=Db6_v127.aif
offset=0
lokey=84
hikey=84
pitch_keycenter=85
loop_mode=loop_continuous
loop_start=819973
loop_end=996844
<region>
lovel=1
hivel=20
ampeg_release=1
sample=Bb5_v20.aif
offset=0
lokey=81
hikey=83
pitch_keycenter=82
loop_mode=loop_continuous
loop_start=992654
loop_end=1088721
<region>
lovel=21
hivel=40
ampeg_release=1
sample=Bb5_v40.aif
offset=0
lokey=81
hikey=83
pitch_keycenter=82
loop_mode=loop_continuous
loop_start=487867
loop_end=661736
<region>
lovel=41
hivel=60
ampeg_release=1
sample=Bb5_v60.aif
offset=0
lokey=81
hikey=83
pitch_keycenter=82
loop_mode=loop_continuous
loop_start=991831
loop_end=1074228
<region>
lovel=61
hivel=80
ampeg_release=1
sample=Bb5_v80.aif
offset=0
lokey=81
hikey=83
pitch_keycenter=82
loop_mode=loop_continuous
loop_start=661598
loop_end=818865
<region>
lovel=81
hivel=100
ampeg_release=1
sample=Bb5_v100.aif
offset=0
lokey=81
hikey=83
pitch_keycenter=82
loop_mode=loop_continuous
loop_start=487764
loop_end=661512
<region>
lovel=101
hivel=127
ampeg_release=1
sample=Bb5_v127.aif
offset=0
lokey=81
hikey=83
pitch_keycenter=82
loop_mode=loop_continuous
loop_start=818717
loop_end=835132
<region>
lovel=1
hivel=20
ampeg_release=1
sample=G5_v20.aif
offset=0
lokey=78
hikey=80
pitch_keycenter=79
loop_mode=loop_continuous
loop_start=496262
loop_end=662247
<region>
lovel=21
hivel=40
ampeg_release=1
sample=G5_v40.aif
offset=0
lokey=78
hikey=80
pitch_keycenter=79
loop_mode=loop_continuous
loop_start=994116
loop_end=1063625
<region>
lovel=41
hivel=60
ampeg_release=1
sample=G5_v60.aif
offset=0
lokey=78
hikey=80
pitch_keycenter=79
loop_mode=loop_continuous
loop_start=994115
loop_end=1069125
<region>
lovel=61
hivel=80
ampeg_release=1
sample=G5_v80.aif
offset=0
lokey=78
hikey=80
pitch_keycenter=79
loop_mode=loop_continuous
loop_start=827880
loop_end=993543
<region>
lovel=81
hivel=100
ampeg_release=1
sample=G5_v100.aif
offset=0
lokey=78
hikey=80
pitch_keycenter=79
loop_mode=loop_continuous
loop_start=496507
loop_end=663119
<region>
lovel=101
hivel=127
ampeg_release=1
sample=G5_v127.aif
offset=0
lokey=78
hikey=80
pitch_keycenter=79
loop_mode=loop_continuous
loop_start=828246
loop_end=994728
<region>
lovel=1
hivel=20
ampeg_release=1
sample=E5_v20.aif
offset=0
lokey=75
hikey=77
pitch_keycenter=76
loop_mode=loop_continuous
loop_start=1063853
loop_end=1083138
<region>
lovel=21
hivel=40
ampeg_release=1
sample=E5_v40.aif
offset=0
lokey=75
hikey=77
pitch_keycenter=76
loop_mode=loop_continuous
loop_start=1063998
loop_end=1083198
<region>
lovel=41
hivel=60
ampeg_release=1
sample=E5_v60.aif
offset=0
lokey=75
hikey=77
pitch_keycenter=76
loop_mode=loop_continuous
loop_start=663986
loop_end=984141
<region>
lovel=61
hivel=80
ampeg_release=1
sample=E5_v80.aif
offset=0
lokey=75
hikey=77
pitch_keycenter=76
loop_mode=loop_continuous
loop_start=984668
loop_end=1089079
<region>
lovel=81
hivel=100
ampeg_release=1
sample=E5_v100.aif
offset=0
lokey=75
hikey=77
pitch_keycenter=76
loop_mode=loop_continuous
loop_start=492407
loop_end=664073
<region>
lovel=101
hivel=127
ampeg_release=1
sample=E5_v127.aif
offset=0
lokey=75
hikey=77
pitch_keycenter=76
loop_mode=loop_continuous
loop_start=492407
loop_end=664255
<region>
lovel=1
hivel=20
ampeg_release=1
sample=Db5_v20.aif
offset=0
lokey=72
hikey=74
pitch_keycenter=73
loop_mode=loop_continuous
loop_start=995904
loop_end=1108530
<region>
lovel=21
hivel=40
ampeg_release=1
sample=Db5_v40.aif
offset=0
lokey=72
hikey=74
pitch_keycenter=73
loop_mode=loop_continuous
loop_start=994527
loop_end=1093486
<region>
lovel=41
hivel=60
ampeg_release=1
sample=Db5_v60.aif
offset=0
lokey=72
hikey=74
pitch_keycenter=73
loop_mode=loop_continuous
loop_start=819460
loop_end=909726
<region>
lovel=61
hivel=80
ampeg_release=1
sample=Db5_v80.aif
offset=0
lokey=72
hikey=74
pitch_keycenter=73
loop_mode=loop_continuous
loop_start=819634
loop_end=909487
<region>
lovel=81
hivel=100
ampeg_release=1
sample=Db5_v100.aif
offset=0
lokey=72
hikey=74
pitch_keycenter=73
loop_mode=loop_continuous
loop_start=994870
loop_end=1108530
<region>
lovel=101
hivel=127
ampeg_release=1
sample=Db5_v127.aif
offset=0
lokey=72
hikey=74
pitch_keycenter=73
loop_mode=loop_continuous
loop_start=995043
loop_end=1108516
<region>
lovel=1
hivel=20
ampeg_release=1
sample=Bb4_v20.aif
offset=0
lokey=69
hikey=71
pitch_keycenter=70
loop_mode=loop_continuous
loop_start=1068673
loop_end=1107294
<region>
lovel=21
hivel=40
ampeg_release=1
sample=Bb4_v40.aif
offset=0
lokey=69
hikey=71
pitch_keycenter=70
loop_mode=loop_continuous
loop_start=660471
loop_end=833671
<region>
lovel=41
hivel=60
ampeg_release=1
sample=Bb4_v60.aif
offset=0
lokey=69
hikey=71
pitch_keycenter=70
loop_mode=loop_continuous
loop_start=833794
loop_end=1072876
<region>
lovel=61
hivel=80
ampeg_release=1
sample=Bb4_v80.aif
offset=0
lokey=69
hikey=71
pitch_keycenter=70
loop_mode=loop_continuous
loop_start=834618
loop_end=1073528
<region>
lovel=81
hivel=100
ampeg_release=1
sample=Bb4_v100.aif
offset=0
lokey=69
hikey=71
pitch_keycenter=70
loop_mode=loop_continuous
loop_start=660678
loop_end=834675
<region>
lovel=101
hivel=127
ampeg_release=1
sample=Bb4_v127.aif
offset=0
lokey=69
hikey=71
pitch_keycenter=70
loop_mode=loop_continuous
loop_start=660677
loop_end=834315
<region>
lovel=1
hivel=20
ampeg_release=1
sample=G4_v20.aif
offset=0
lokey=66
hikey=68
pitch_keycenter=67
loop_mode=loop_continuous
loop_start=994004
loop_end=1066166
<region>
lovel=21
hivel=40
ampeg_release=1
sample=G4_v40.aif
offset=0
lokey=66
hikey=68
pitch_keycenter=67
loop_mode=loop_continuous
loop_start=662747
loop_end=828139
<region>
lovel=41
hivel=60
ampeg_release=1
sample=G4_v60.aif
offset=0
lokey=66
hikey=68
pitch_keycenter=67
loop_mode=loop_continuous
loop_start=496632
loop_end=662756
<region>
lovel=61
hivel=80
ampeg_release=1
sample=G4_v80.aif
offset=0
lokey=66
hikey=68
pitch_keycenter=67
loop_mode=loop_continuous
loop_start=662993
loop_end=828386
<region>
lovel=81
hivel=100
ampeg_release=1
sample=G4_v100.aif
offset=0
lokey=66
hikey=68
pitch_keycenter=67
loop_mode=loop_continuous
loop_start=662993
loop_end=828342
<region>
lovel=101
hivel=127
ampeg_release=1
sample=G4_v127.aif
offset=0
lokey=66
hikey=68
pitch_keycenter=67
loop_mode=loop_continuous
loop_start=662994
loop_end=828336
<region>
lovel=1
hivel=20
ampeg_release=1
sample=E4_v20.aif
offset=0
lokey=63
hikey=65
pitch_keycenter=64
loop_mode=loop_continuous
loop_start=617010
loop_end=988028
<region>
lovel=21
hivel=40
ampeg_release=1
sample=E4_v40.aif
offset=0
lokey=63
hikey=65
pitch_keycenter=64
loop_mode=loop_continuous
loop_start=987149
loop_end=1105239
<region>
lovel=41
hivel=60
ampeg_release=1
sample=E4_v60.aif
offset=0
lokey=63
hikey=65
pitch_keycenter=64
loop_mode=loop_continuous
loop_start=986566
loop_end=1082584
<region>
lovel=61
hivel=80
ampeg_release=1
sample=E4_v80.aif
offset=0
lokey=63
hikey=65
pitch_keycenter=64
loop_mode=loop_continuous
loop_start=986858
loop_end=1107282
<region>
lovel=81
hivel=100
ampeg_release=1
sample=E4_v100.aif
offset=0
lokey=63
hikey=65
pitch_keycenter=64
loop_mode=loop_continuous
loop_start=493430
loop_end=642028
<region>
lovel=101
hivel=127
ampeg_release=1
sample=E4_v127.aif
offset=0
lokey=63
hikey=65
pitch_keycenter=64
loop_mode=loop_continuous
loop_start=743210
loop_end=987129
<region>
lovel=1
hivel=20
ampeg_release=1
sample=Db4_v20.aif
offset=0
lokey=60
hikey=62
pitch_keycenter=61
loop_mode=loop_continuous
loop_start=994185
loop_end=1112892
<region>
lovel=21
hivel=40
ampeg_release=1
sample=Db4_v40.aif
offset=0
lokey=60
hikey=62
pitch_keycenter=61
loop_mode=loop_continuous
loop_start=820328
loop_end=992865
<region>
lovel=41
hivel=60
ampeg_release=1
sample=Db4_v60.aif
offset=0
lokey=60
hikey=62
pitch_keycenter=61
loop_mode=loop_continuous
loop_start=820675
loop_end=994257
<region>
lovel=61
hivel=80
ampeg_release=1
sample=Db4_v80.aif
offset=0
lokey=60
hikey=62
pitch_keycenter=61
loop_mode=loop_continuous
loop_start=643704
loop_end=820321
<region>
lovel=81
hivel=100
ampeg_release=1
sample=Db4_v100.aif
offset=0
lokey=60
hikey=62
pitch_keycenter=61
loop_mode=loop_continuous
loop_start=820675
loop_end=994497
<region>
lovel=101
hivel=127
ampeg_release=1
sample=Db4_v127.aif
offset=0
lokey=60
hikey=62
pitch_keycenter=61
loop_mode=loop_continuous
loop_start=644050
loop_end=820311
<region>
lovel=1
hivel=20
ampeg_release=1
sample=Bb3_v20.aif
offset=0
lokey=57
hikey=59
pitch_keycenter=58
loop_mode=loop_continuous
loop_start=835249
loop_end=982483
<region>
lovel=21
hivel=40
ampeg_release=1
sample=Bb3_v40.aif
offset=0
lokey=57
hikey=59
pitch_keycenter=58
loop_mode=loop_continuous
loop_start=834016
loop_end=978016
<region>
lovel=41
hivel=60
ampeg_release=1
sample=Bb3_v60.aif
offset=0
lokey=57
hikey=59
pitch_keycenter=58
loop_mode=loop_continuous
loop_start=489422
loop_end=904246
<region>
lovel=61
hivel=80
ampeg_release=1
sample=Bb3_v80.aif
offset=0
lokey=57
hikey=59
pitch_keycenter=58
loop_mode=loop_continuous
loop_start=489422
loop_end=561686
<region>
lovel=81
hivel=100
ampeg_release=1
sample=Bb3_v100.aif
offset=0
lokey=57
hikey=59
pitch_keycenter=58
loop_mode=loop_continuous
loop_start=833191
loop_end=974219
<region>
lovel=101
hivel=127
ampeg_release=1
sample=Bb3_v127.aif
offset=0
lokey=57
hikey=59
pitch_keycenter=58
loop_mode=loop_continuous
loop_start=833187
loop_end=980148
<region>
lovel=1
hivel=20
ampeg_release=1
sample=G3_v20.aif
offset=0
lokey=54
hikey=56
pitch_keycenter=55
loop_mode=loop_continuous
loop_start=994263
loop_end=1086457
<region>
lovel=21
hivel=40
ampeg_release=1
sample=G3_v40.aif
offset=0
lokey=54
hikey=56
pitch_keycenter=55
loop_mode=loop_continuous
loop_start=746426
loop_end=826929
<region>
lovel=41
hivel=60
ampeg_release=1
sample=G3_v60.aif
offset=0
lokey=54
hikey=56
pitch_keycenter=55
loop_mode=loop_continuous
loop_start=825944
loop_end=991797
<region>
lovel=61
hivel=80
ampeg_release=1
sample=G3_v80.aif
offset=0
lokey=54
hikey=56
pitch_keycenter=55
loop_mode=loop_continuous
loop_start=992311
loop_end=1157272
<region>
lovel=81
hivel=100
ampeg_release=1
sample=G3_v100.aif
offset=0
lokey=54
hikey=56
pitch_keycenter=55
loop_mode=loop_continuous
loop_start=660559
loop_end=825436
<region>
lovel=101
hivel=127
ampeg_release=1
sample=G3_v127.aif
offset=0
lokey=54
hikey=56
pitch_keycenter=55
loop_mode=loop_continuous
loop_start=660559
loop_end=744034
<region>
lovel=1
hivel=20
ampeg_release=1
sample=E3_v20.aif
offset=0
lokey=51
hikey=53
pitch_keycenter=52
loop_mode=loop_continuous
loop_start=982798
loop_end=1062305
<region>
lovel=21
hivel=40
ampeg_release=1
sample=E3_v40.aif
offset=0
lokey=51
hikey=53
pitch_keycenter=52
loop_mode=loop_continuous
loop_start=983392
loop_end=1107487
<region>
lovel=41
hivel=60
ampeg_release=1
sample=E3_v60.aif
offset=0
lokey=51
hikey=53
pitch_keycenter=52
loop_mode=loop_continuous
loop_start=491985
loop_end=984492
<region>
lovel=61
hivel=80
ampeg_release=1
sample=E3_v80.aif
offset=0
lokey=51
hikey=53
pitch_keycenter=52
loop_mode=loop_continuous
loop_start=984548
loop_end=1076165
<region>
lovel=81
hivel=100
ampeg_release=1
sample=E3_v100.aif
offset=0
lokey=51
hikey=53
pitch_keycenter=52
loop_mode=loop_continuous
loop_start=985135
loop_end=995069
<region>
lovel=101
hivel=127
ampeg_release=1
sample=E3_v127.aif
offset=0
lokey=51
hikey=53
pitch_keycenter=52
loop_mode=loop_continuous
loop_start=492569
loop_end=502451
<region>
lovel=1
hivel=20
ampeg_release=1
sample=Db3_v20.aif
offset=0
lokey=48
hikey=50
pitch_keycenter=49
loop_mode=loop_continuous
loop_start=938342
loop_end=948098
<region>
lovel=21
hivel=40
ampeg_release=1
sample=Db3_v40.aif
offset=0
lokey=48
hikey=50
pitch_keycenter=49
loop_mode=loop_continuous
loop_start=824509
loop_end=1060539
<region>
lovel=41
hivel=60
ampeg_release=1
sample=Db3_v60.aif
offset=0
lokey=48
hikey=50
pitch_keycenter=49
loop_mode=loop_continuous
loop_start=2433264
loop_end=3691402
<region>
lovel=61
hivel=80
ampeg_release=1
sample=Db3_v80.aif
offset=0
lokey=48
hikey=50
pitch_keycenter=49
loop_mode=loop_continuous
loop_start=9291472
loop_end=9301003
<region>
lovel=81
hivel=100
ampeg_release=1
sample=Db3_v100.aif
offset=0
lokey=48
hikey=50
pitch_keycenter=49
loop_mode=loop_continuous
loop_start=2493062
loop_end=2631602
<region>
lovel=101
hivel=127
ampeg_release=1
sample=Db3_v127.aif
offset=0
lokey=48
hikey=50
pitch_keycenter=49
loop_mode=loop_continuous
loop_start=942492
loop_end=1299283
<region>
lovel=1
hivel=0
ampeg_release=1
sample=Bb2_v0.aif
offset=0
lokey=45
hikey=47
pitch_keycenter=46
loop_mode=loop_continuous
loop_start=1105632
loop_end=1250019
<region>
lovel=1
hivel=20
ampeg_release=1
sample=Bb2_v20.aif
offset=0
lokey=45
hikey=47
pitch_keycenter=46
loop_mode=loop_continuous
loop_start=1809231
loop_end=1959315
<region>
lovel=21
hivel=40
ampeg_release=1
sample=Bb2_v40.aif
offset=0
lokey=45
hikey=47
pitch_keycenter=46
loop_mode=loop_continuous
loop_start=557121
loop_end=826202
<region>
lovel=41
hivel=60
ampeg_release=1
sample=Bb2_v60.aif
offset=0
lokey=45
hikey=47
pitch_keycenter=46
loop_mode=loop_continuous
loop_start=826227
loop_end=1112586
<region>
lovel=61
hivel=80
ampeg_release=1
sample=Bb2_v80.aif
offset=0
lokey=45
hikey=47
pitch_keycenter=46
loop_mode=loop_continuous
loop_start=836109
loop_end=1112604
<region>
lovel=81
hivel=100
ampeg_release=1
sample=Bb2_v100.aif
offset=0
lokey=45
hikey=47
pitch_keycenter=46
loop_mode=loop_continuous
loop_start=825397
loop_end=835331
<region>
lovel=101
hivel=127
ampeg_release=1
sample=Bb2_v127.aif
offset=0
lokey=45
hikey=47
pitch_keycenter=46
loop_mode=loop_continuous
loop_start=830339
loop_end=980554
<region>
lovel=1
hivel=20
ampeg_release=1
sample=G2_v20.aif
offset=0
lokey=42
hikey=44
pitch_keycenter=43
loop_mode=loop_continuous
loop_start=661570
loop_end=827461
<region>
lovel=21
hivel=40
ampeg_release=1
sample=G2_v40.aif
offset=0
lokey=42
hikey=44
pitch_keycenter=43
loop_mode=loop_continuous
loop_start=660578
loop_end=826350
<region>
lovel=41
hivel=60
ampeg_release=1
sample=G2_v60.aif
offset=0
lokey=42
hikey=44
pitch_keycenter=43
loop_mode=loop_continuous
loop_start=495680
loop_end=660539
<region>
lovel=61
hivel=80
ampeg_release=1
sample=G2_v80.aif
offset=0
lokey=42
hikey=44
pitch_keycenter=43
loop_mode=loop_continuous
loop_start=836248
loop_end=1001180
<region>
lovel=81
hivel=100
ampeg_release=1
sample=G2_v100.aif
offset=0
lokey=42
hikey=44
pitch_keycenter=43
loop_mode=loop_continuous
loop_start=660582
loop_end=670400
<region>
lovel=101
hivel=127
ampeg_release=1
sample=G2_v127.aif
offset=0
lokey=42
hikey=44
pitch_keycenter=43
loop_mode=loop_continuous
loop_start=666455
loop_end=831334
<region>
lovel=1
hivel=20
ampeg_release=1
sample=E2_v20.aif
offset=0
lokey=39
hikey=41
pitch_keycenter=40
loop_mode=loop_continuous
loop_start=988669
loop_end=1065585
<region>
lovel=21
hivel=40
ampeg_release=1
sample=E2_v40.aif
offset=0
lokey=39
hikey=41
pitch_keycenter=40
loop_mode=loop_continuous
loop_start=385224
loop_end=986270
<region>
lovel=41
hivel=60
ampeg_release=1
sample=E2_v60.aif
offset=0
lokey=39
hikey=41
pitch_keycenter=40
loop_mode=loop_continuous
loop_start=398033
loop_end=591885
<region>
lovel=61
hivel=80
ampeg_release=1
sample=E2_v80.aif
offset=0
lokey=39
hikey=41
pitch_keycenter=40
loop_mode=loop_continuous
loop_start=987496
loop_end=997875
<region>
lovel=81
hivel=100
ampeg_release=1
sample=E2_v100.aif
offset=0
lokey=39
hikey=41
pitch_keycenter=40
loop_mode=loop_continuous
loop_start=1976190
loop_end=1996003
<region>
lovel=101
hivel=127
ampeg_release=1
sample=E2_v127.aif
offset=0
lokey=39
hikey=41
pitch_keycenter=40
loop_mode=loop_continuous
loop_start=594134
loop_end=988751
<region>
lovel=1
hivel=0
ampeg_release=1
sample=Db2_v0.aif
offset=0
lokey=36
hikey=38
pitch_keycenter=37
loop_mode=loop_continuous
loop_start=13488
loop_end=26257
<region>
lovel=1
hivel=20
ampeg_release=1
sample=Db2_v20.aif
offset=0
lokey=36
hikey=38
pitch_keycenter=37
loop_mode=loop_continuous
loop_start=935635
loop_end=945314
<region>
lovel=21
hivel=40
ampeg_release=1
sample=Db2_v40.aif
offset=0
lokey=36
hikey=38
pitch_keycenter=37
loop_mode=loop_continuous
loop_start=932855
loop_end=952126
<region>
lovel=41
hivel=60
ampeg_release=1
sample=Db2_v60.aif
offset=0
lokey=36
hikey=38
pitch_keycenter=37
loop_mode=loop_continuous
loop_start=1177127
loop_end=1302802
<region>
lovel=61
hivel=80
ampeg_release=1
sample=Db2_v80.aif
offset=0
lokey=36
hikey=38
pitch_keycenter=37
loop_mode=loop_continuous
loop_start=705171
loop_end=934193
<region>
lovel=81
hivel=100
ampeg_release=1
sample=Db2_v100.aif
offset=0
lokey=36
hikey=38
pitch_keycenter=37
loop_mode=loop_continuous
loop_start=1646325
loop_end=1665723
<region>
lovel=101
hivel=127
ampeg_release=1
sample=Db2_v127.aif
offset=0
lokey=36
hikey=38
pitch_keycenter=37
loop_mode=loop_continuous
loop_start=1880924
loop_end=1900209